# xmcd CD database file
#
# Track frame offsets:
#	150
#	17100
#	33825
#	50550
#	66900
#	83250
#	98550
#	114600
#	129225
#	148050
#	166350
#	181500
#	198975
#
# Disc length: 2887 seconds
#
# Revision: 1
# Processed by: cddbd v1.5.1PL2 Copyright (c) Steve Scherf et al.
# Submitted via: freeDBTagger 0.8.2.1
#
DISCID=9f0b450d
DTITLE=河合奈保子 - 全曲集 [CD1]
DYEAR=1986
DGENRE=misc
TTITLE0=大きな森の小さなおうち
TTITLE1=Young Boy
TTITLE2=愛してます
TTITLE3=17sai
TTITLE4=Smile for Me
TTITLE5=ロンリーロンリー
TTITLE6=恋のDOKI DOKI TRAIN
TTITLE7=Love Letter
TTITLE8=愛をください
TTITLE9=夏のヒロイン
TTITLE10=危険な恋人
TTITLE11=季節はずれの恋人
TTITLE12=虹のファンタジア
EXTD=
EXTT0=
EXTT1=
EXTT2=
EXTT3=
EXTT4=
EXTT5=
EXTT6=
EXTT7=
EXTT8=
EXTT9=
EXTT10=
EXTT11=
EXTT12=
PLAYORDER=
